<svg xmlns="http://www.w3.org/2000/svg" viewBox="0 0 132.31 117.93"><defs><style>.cls-1{isolation:isolate;}.cls-2{fill:#fff;}.cls-3{fill:#f7f7f7;opacity:0.18;}</style></defs><title>logo_white</title><g id="lfm" class="cls-1"><path class="cls-2" d="M128.92,53.08a17.34,17.34,0,0,0-3.39-5.65,15.51,15.51,0,0,0-5.13-3.72,15.24,15.24,0,0,0-6.34-1.33c-.51,0-1,0-1.51.07s-1-.07-1.48-.07a14.92,14.92,0,0,0-5.95,1.2,13.61,13.61,0,0,0-3.28,2,15.92,15.92,0,0,0-3.36-2,14.44,14.44,0,0,0-5.79-1.2H73.23v70.86H87.29v-59h7.52v59h13.73v-59h7.85v59h13.73V60.05A20,20,0,0,0,128.92,53.08Z" transform="translate(-16.8 -18.99)"/><path class="cls-2" d="M62.52,28.4a21.57,21.57,0,0,0-7.83,1.4,20.91,20.91,0,0,0-6.33,3.79,16.9,16.9,0,0,0-4.23,5.66,16.17,16.17,0,0,0-1.5,6.85v79a10.07,10.07,0,0,0,1,4.52A13.08,13.08,0,0,0,50.77,136a14.15,14.15,0,0,0,5.13.93V66.32h9.5v-16H55.9V42.65H69.28V28.4Z" transform="translate(-16.8 -18.99)"/><path class="cls-2" d="M29.9,101.58V19H16.8v83.52a10.34,10.34,0,0,0,3.9,8.3,13.89,13.89,0,0,0,9.08,3.24v0h8.27v-12.5Z" transform="translate(-16.8 -18.99)"/><path class="cls-3" d="M103.83,23.25h0c14.09-6.63,31.46-.07,39.29,14A30.48,30.48,0,0,1,146.6,47.4l2.51,0a33.39,33.39,0,0,0-3.83-11.38C136.84,20.9,119,16.26,103.83,23.25Z" transform="translate(-16.8 -18.99)"/><path class="cls-3" d="M138.93,39.59a26,26,0,0,1,2.8,7.72l2.5,0a28.29,28.29,0,0,0-3.15-9c-7.26-13-23.11-16.56-36.14-10.28h0C116.85,22.2,132.26,27.61,138.93,39.59Z" transform="translate(-16.8 -18.99)"/><path class="cls-3" d="M107.13,32.38h0c9.76-5.23,22.18-.43,27.7,9.49a20.84,20.84,0,0,1,2.07,5.36l2.56,0a23.77,23.77,0,0,0-2.48-6.6C130.86,29.67,118,26.8,107.13,32.38Z" transform="translate(-16.8 -18.99)"/><path class="cls-3" d="M108.69,37c7.6-4.22,17.8-.63,22.11,7.13a16.42,16.42,0,0,1,1.31,3l2.56,0A18.54,18.54,0,0,0,133,42.92c-5-9-15.48-10.81-24.26-5.93l0,0,0,0Z" transform="translate(-16.8 -18.99)"/><path class="cls-2" d="M73.49,117.38h1.24v8.25h4.91v1H73.49Z" transform="translate(-16.8 -18.99)"/><path class="cls-2" d="M84.22,117.38h1.37l3.63,9.29H87.85l-1-2.8H82.91l-1,2.8H80.6Zm-.92,5.45h3.15L84.9,118.5h0Z" transform="translate(-16.8 -18.99)"/><path class="cls-2" d="M93.74,117.38h4.37c1.74,0,2.83,1,2.83,2.43a2.22,2.22,0,0,1-1.62,2.35v0c1.08.21,1.3,1,1.39,1.91a4.81,4.81,0,0,0,.55,2.57H99.88c-.35-.38-.15-1.38-.34-2.29s-.35-1.68-1.54-1.68H95v4H93.74Zm3.82,4.28c1.15,0,2.14-.3,2.14-1.65a1.47,1.47,0,0,0-1.65-1.59H95v3.24Z" transform="translate(-16.8 -18.99)"/><path class="cls-2" d="M105.89,117.38h1.37l3.62,9.29h-1.36l-1-2.8h-3.92l-1,2.8h-1.28Zm-.92,5.45h3.14l-1.55-4.33h0Z" transform="translate(-16.8 -18.99)"/><path class="cls-2" d="M111.73,117.38h3.19c2.86,0,4.46,1.43,4.46,4.42s-1.37,4.87-4.46,4.87h-3.19Zm1.24,8.25h2c.84,0,3.12-.24,3.12-3.66,0-2.21-.82-3.55-3.09-3.55H113Z" transform="translate(-16.8 -18.99)"/><path class="cls-2" d="M120.87,117.38h1.24v9.29h-1.24Z" transform="translate(-16.8 -18.99)"/><path class="cls-2" d="M128.05,117.16c2.95,0,4.45,2.34,4.45,4.86s-1.5,4.87-4.45,4.87-4.45-2.34-4.45-4.87S125.1,117.16,128.05,117.16Zm0,8.68c2.27,0,3.21-1.94,3.21-3.82s-.94-3.82-3.21-3.82-3.21,2-3.21,3.82S125.79,125.84,128.05,125.84Z" transform="translate(-16.8 -18.99)"/></g></svg>