<?xml version="1.0" encoding="utf-8"?>
<!-- Generator: Adobe Illustrator 22.1.0, SVG Export Plug-In . SVG Version: 6.00 Build 0)  -->
<svg version="1.1" id="Calque_1" xmlns="http://www.w3.org/2000/svg" xmlns:xlink="http://www.w3.org/1999/xlink" x="0px" y="0px"
	 viewBox="0 0 1350 433" style="enable-background:new 0 0 1350 433;" xml:space="preserve">
<style type="text/css">
	.st0{opacity:0.65;}
	.st1{fill:#7A2D6A;}
</style>
<g class="st0">
	<path class="st1" d="M365.3,20.7c-14.3,0-28.9,2.7-42.9,8.3c11-4.3,22.6-6.3,34.1-6.3c37.5,0,74.8,21.5,94.5,57
		c6.2,11.1,10.1,22.9,11.9,34.8l8.6,0.2c-2-13.3-6.2-26.6-13.2-39C438.3,39.4,402.7,20.7,365.3,20.7 M322.4,29
		c-2.1,0.8-4.1,1.7-6.1,2.6C318.3,30.7,320.4,29.8,322.4,29"/>
	<path class="st1" d="M365,37.9c-12.9,0-26.1,2.5-38.7,7.6c9.5-3.7,19.6-5.5,29.6-5.5c32,0,64.2,17.9,80.7,47.6
		c4.7,8.5,7.8,17.4,9.6,26.5l8.6,0.1c-1.8-10.5-5.3-20.9-10.8-30.7C427.2,53.2,396.8,37.9,365,37.9 M326.3,45.5
		c-2.1,0.8-4.2,1.7-6.2,2.8C322.2,47.3,324.2,46.4,326.3,45.5"/>
	<path class="st1" d="M366,53.4c-10.6,0-21.5,2.2-32,6.6c7.5-3,15.4-4.4,23.2-4.4c25.9,0,51.8,15.4,65.5,39.9
		c3.3,5.9,5.6,12.1,7.1,18.4l8.8,0.1c-1.7-7.7-4.5-15.4-8.5-22.6C416,66.2,391.7,53.4,366,53.4 M333.9,60c-2.1,0.8-4.2,1.8-6.3,2.9
		C329.7,61.9,331.8,60.9,333.9,60"/>
	<path class="st1" d="M366.5,69.7c-11.2,0-22.7,3-33.6,9.1c7.5-4.2,15.8-6.1,24.2-6.1c20.4,0,41.1,11.7,51.6,30.6
		c1.9,3.4,3.4,6.9,4.5,10.4l8.8,0.1c-1.3-5-3.2-9.9-5.9-14.7C405.2,79.4,386.5,69.7,366.5,69.7 M333,78.7L333,78.7l-0.2,0.1
		L333,78.7z"/>
</g>
<path class="st1" d="M402.3,133.9c-2.8-7.4-6.6-13.9-11.6-19.4s-10.8-9.7-17.6-12.8c-6.7-3-14-4.6-21.7-4.6c-1.7,0-3.4,0.1-5.1,0.2
	c-1.7-0.2-3.4-0.2-5.2-0.2c-7.2,0-14,1.4-20.4,4.1c-4.2,1.8-7.9,4-11.3,6.7c-3.5-2.7-7.4-4.9-11.5-6.7c-6.3-2.7-13-4.1-19.9-4.1
	h-10.8h-44.7h-11.2v243h11.2h26.1h10.9V138h25.8v202.3H296h26.1h10.4V138h26.9v202.2h10.1h27.2h9.8V157.8
	C406.5,149.3,405.1,141.4,402.3,133.9z"/>
<path class="st1" d="M174.6,49.3c-9.6,0-18.6,1.6-26.8,4.8c-8.3,3.2-15.5,7.5-21.7,13s-11,11.9-14.5,19.4
	c-3.4,7.5-5.2,15.3-5.2,23.5v8.1v254.7v8.1c0,5.5,1.2,10.6,3.6,15.5s5.7,9.2,9.8,13s9,6.8,14.5,8.9s11.4,3.2,17.6,3.2v-8.1V179.3
	h30.4l0,0h2.2v-55h-32.6V98.1h45.9V90V57.3v-8.1L174.6,49.3L174.6,49.3z"/>
<path class="st1" d="M62.7,300.3V17h-45v286.5c0,11.5,4.5,21,13.4,28.5c8.8,7.4,19.2,11.1,31.2,11.1l0,0h28.4v-42.8L62.7,300.3
	L62.7,300.3z"/>
<g>
	<polygon class="st1" points="552.9,157.8 569.2,157.8 569.2,266.9 634.3,266.9 634.3,280.7 552.9,280.7 	"/>
	<path class="st1" d="M682.7,229.9h41.6l-20.5-57.3h-0.3L682.7,229.9z M694.8,157.8h18.1l48,122.9h-18.1l-13.4-37h-52l-13.8,37
		h-16.9L694.8,157.8z"/>
	<path class="st1" d="M871.3,214.4c15.3,0,28.4-3.9,28.4-21.8c0-12-6.6-21-21.9-21h-40.6v42.8H871.3z M820.8,157.8h57.8
		c23.1,0,37.3,12.6,37.3,32.2c0,14.8-6.6,27-21.3,31.1v0.3c14.3,2.8,17.2,13.3,18.4,25.3c1.1,12,0.4,25.5,7.3,33.9h-18.2
		c-4.7-5-2.1-18.2-4.5-30.3c-1.7-12-4.7-22.2-20.5-22.2h-39.9v52.5h-16.4L820.8,157.8L820.8,157.8z"/>
	<path class="st1" d="M969.3,229.9h41.6l-20.5-57.3h-0.3L969.3,229.9z M981.5,157.8h18.1l48,122.9h-18.1l-13.4-37h-52l-13.7,37
		h-16.9L981.5,157.8z"/>
	<path class="st1" d="M1075.2,266.9h27.2c11.2,0,41.3-3.1,41.3-48.4c0-29.3-10.8-47-40.9-47h-27.6V266.9z M1058.8,157.8h42.2
		c37.8,0,59,18.9,59,58.5c0,41.1-18.1,64.4-59,64.4h-42.2V157.8z"/>
	<rect x="1179.8" y="157.8" class="st1" width="16.4" height="122.9"/>
	<path class="st1" d="M1274.8,269.8c30,0,42.5-25.8,42.5-50.6s-12.5-50.6-42.5-50.6c-29.9,0-42.5,25.8-42.5,50.6
		S1244.9,269.8,1274.8,269.8 M1274.8,154.9c39.1,0,58.8,31,58.8,64.4s-19.8,64.4-58.8,64.4c-39.1,0-58.8-31-58.8-64.4
		C1215.9,185.9,1235.7,154.9,1274.8,154.9"/>
</g>
</svg>
